# xmcd
#
# Track frame offsets:
#	150
#	12128
#	26780
#	42940
#	57798
#	80170
#	99738
#	128010
#	145095
#	164325
#	183923
#	200588
#	217335
#	235763
#
# Disc length: 3338 seconds
#
# Revision: 5
# Processed by: cddbd v1.5.2PL0 Copyright (c) Steve Scherf et al.
# Submitted via: audiograbber 1.83.01
#
DISCID=c40d080e
DTITLE=Various Artist - Hot Hits - Dancin Country Vol. 2
DYEAR=1900
DGENRE=Country
TTITLE0=Tracy Lawrence - Renegads, Rebels and Rogues
TTITLE1=Carlene Carter - Every Little Thing
TTITLE2=Alabama - T.L.C.A.S.A.P.
TTITLE3=Wynonna - Girls With Guitars
TTITLE4=Martina McBride - Life #9
TTITLE5=Twister Alley - Dance (Dance Mix)
TTITLE6=Billamy Brothers - Rip Off The Knob (Dance Mix)
TTITLE7=Kentucky Headhunters - Walk Softly On This Heart Of Mine
TTITLE8=Ricky Lynn Gregg - If I Had A Cheatin Heart (Dance Mix)
TTITLE9=Toby Keith - A Little Less Talk And A Lot More Action
TTITLE10=Dan Seals - Bop
TTITLE11=Brooks and Dunn - Rock My World (Little Country Girl)
TTITLE12=Clay Walker - What's It To You
TTITLE13=George Strait - You Look So Good In Love
EXTD=
EXTT0=
EXTT1=
EXTT2=
EXTT3=
EXTT4=
EXTT5=
EXTT6=
EXTT7=
EXTT8=
EXTT9=
EXTT10=
EXTT11=
EXTT12=
EXTT13=
PLAYORDER=
